<?xml version="1.0" encoding="utf-8"?>
<!-- Generator: Adobe Illustrator 17.1.0, SVG Export Plug-In . SVG Version: 6.00 Build 0)  -->
<!DOCTYPE svg PUBLIC "-//W3C//DTD SVG 1.1//EN" "http://www.w3.org/Graphics/SVG/1.1/DTD/svg11.dtd">
<svg version="1.1" xmlns="http://www.w3.org/2000/svg" xmlns:xlink="http://www.w3.org/1999/xlink" x="0px" y="0px"
	 viewBox="0 0 566 700" enable-background="new 0 0 566 700" xml:space="preserve">

<g id="Layer_1">
	<g>
		<path fill="#E4E4E4" d="M298.5,607.2c-12.6,0-25.3-1.1-37.6-3.2l-1-0.2l29.6-198l-27.1,61l-20.3-12.1l45.2-52.6L126.8,524.6
			l-0.6-0.8c-12.1-15.5-21.8-32.7-29-50.9l-0.4-0.9l0.9-0.4l181.4-70.1l-149.6,20.9v-47.1l158.4,22.1L97.5,323.8l0.4-0.9
			c7.3-18,17.1-34.9,29.3-50.4l0.6-0.8L282,389.2l-76.9-89.5l34.5-20.2l49.9,112.2l-29.6-198l1-0.2c12.4-2.1,25-3.2,37.6-3.2
			c8,0,16.1,0.4,23.9,1.3l1,0.1l-0.2,1l-29.7,198.8l83.2-187.1l0.9,0.3c19.5,7.5,37.7,17.7,54.3,30.3l0.8,0.6L301.2,389.2l132.5-101
			l28,44.9l-166,64.2L511.5,367l0.1,1c1.6,10.2,2.4,20.6,2.4,30.8c0,10.2-0.8,20.6-2.4,30.8l-0.1,1l-207.1-29l95.5,36.9l-18.5,28.9
			l-85.5-65.1l108.5,126.3l-45.5,23.8l-65.1-146.5l29.9,199.9l-1,0.1C314.4,606.8,306.4,607.2,298.5,607.2z M262.2,602.2
			c12,2,24.2,3,36.3,3c7.4,0,15.1-0.4,22.7-1.2l-29.7-198.5L262.2,602.2z M295.3,404.7l64.5,144.9l41.4-21.7L295.3,404.7l0.1,0.1
			L295.3,404.7z M99.4,473.1c7,17.4,16.3,33.8,27.8,48.7l158.3-120.6L99.4,473.1z M297.8,401.2l83.1,63.3l16-25L297.8,401.2z
			 M245.2,454.3l16.3,9.7l26.4-59.4L245.2,454.3z M298.8,398.8l211,29.5c1.4-9.8,2.2-19.7,2.2-29.5c0-9.8-0.7-19.7-2.2-29.5
			L298.8,398.8z M131.5,377.6V420l152.2-21.2L131.5,377.6z M433.2,291.1L297.8,394.2l160.9-62.2L433.2,291.1z M100.1,322.6
			l185.2,71.6L128.2,274.5C116.6,289.3,107.2,305.5,100.1,322.6z M377.9,207.1L295.3,393l0,0l0,0L430,236.1
			C414,224.1,396.5,214.3,377.9,207.1z M287.9,393L287.9,393l-49.2-110.6l-30.5,17.8L287.9,393L287.9,393z M262.2,195.3L291.6,392
			l29.6-198.5c-7.5-0.8-15.1-1.2-22.7-1.2C286.4,192.3,274.2,193.4,262.2,195.3z"/>
	</g>
</g>
<g id="specctr">
	<g id="Dimensions">
	</g>
</g>
</svg>
