<?xml version="1.0" encoding="utf-8"?>
<!-- Generator: Adobe Illustrator 17.1.0, SVG Export Plug-In . SVG Version: 6.00 Build 0)  -->
<!DOCTYPE svg PUBLIC "-//W3C//DTD SVG 1.1//EN" "http://www.w3.org/Graphics/SVG/1.1/DTD/svg11.dtd">
<svg version="1.1" xmlns="http://www.w3.org/2000/svg" xmlns:xlink="http://www.w3.org/1999/xlink" x="0px" y="0px"
	 viewBox="0 0 928 1340" enable-background="new 0 0 928 1340" xml:space="preserve">

<g id="Layer_1">
	<path fill="#E4E4E4" d="M658.5,446.4h-3h-174h-3h-173h-6h-204v55v6v49v3v49v3v49v3v49v3v49v3v49v3v49v3v54h204h6h173h3h174h3h175
		v-54v-3v-49v-3v-49v-3v-49v-3v-49v-3v-49v-3v-49v-3v-49v-6v-55H658.5z M655.5,452.4v49h-174v-49H655.5z M478.5,559.4v49h-173v-49
		H478.5z M305.5,556.4v-49h173v49H305.5z M478.5,611.4v49h-173v-49H478.5z M478.5,663.4v49h-173v-49H478.5z M478.5,715.4v49h-173
		v-49H478.5z M478.5,767.4v49h-173v-49H478.5z M478.5,819.4v49h-173v-49H478.5z M481.5,819.4h174v49h-174V819.4z M481.5,816.4v-49
		h174v49H481.5z M481.5,764.4v-49h174v49H481.5z M481.5,712.4v-49h174v49H481.5z M481.5,660.4v-49h174v49H481.5z M481.5,608.4v-49
		h174v49H481.5z M481.5,556.4v-49h174v49H481.5z M478.5,452.4v49h-173v-49H478.5z M101.5,452.4h198v49h-198V452.4z M101.5,507.4h198
		v49h-198V507.4z M101.5,559.4h198v49h-198V559.4z M101.5,611.4h198v49h-198V611.4z M101.5,663.4h198v49h-198V663.4z M101.5,715.4
		h198v49h-198V715.4z M101.5,767.4h198v49h-198V767.4z M101.5,819.4h198v49h-198V819.4z M101.5,919.4v-48h198v48H101.5z
		 M305.5,919.4v-48h173v48H305.5z M481.5,919.4v-48h174v48H481.5z M827.5,919.4h-169v-48h169V919.4z M827.5,868.4h-169v-49h169
		V868.4z M827.5,816.4h-169v-49h169V816.4z M827.5,764.4h-169v-49h169V764.4z M827.5,712.4h-169v-49h169V712.4z M827.5,660.4h-169
		v-49h169V660.4z M827.5,608.4h-169v-49h169V608.4z M827.5,556.4h-169v-49h169V556.4z M658.5,501.4v-49h169v49H658.5z"/>
</g>
<g id="specctr">
	<g id="Dimensions">
	</g>
</g>
</svg>
