<?xml version="1.0" encoding="utf-8"?>
<!-- Generator: Adobe Illustrator 17.1.0, SVG Export Plug-In . SVG Version: 6.00 Build 0)  -->
<!DOCTYPE svg PUBLIC "-//W3C//DTD SVG 1.1//EN" "http://www.w3.org/Graphics/SVG/1.1/DTD/svg11.dtd">
<svg version="1.1" xmlns="http://www.w3.org/2000/svg" xmlns:xlink="http://www.w3.org/1999/xlink" x="0px" y="0px"
	 viewBox="0 0 566 700" enable-background="new 0 0 566 700" xml:space="preserve">

<g id="Layer_1">
	<rect x="25.5" y="558.5" fill="#E4E4E4" width="516" height="2"/>
	<path fill="#E4E4E4" d="M518.9,188.1c-18.1,0-32.8,14.7-32.8,32.8c0,10,4.5,19,11.7,25.1l-129,162.8c-5.5-4.1-12.2-6.5-19.6-6.5
		c-10.4,0-19.7,4.9-25.7,12.5l-96.4-71.5c3.7-5.3,5.9-11.8,5.9-18.7c0-18.1-14.7-32.8-32.8-32.8c-18.1,0-32.8,14.7-32.8,32.8
		c0,9.2,3.8,17.5,9.9,23.5L69.5,465.4c-5.8-5-13.2-8-21.4-8c-18.1,0-32.8,14.7-32.8,32.8S30,523,48.1,523s32.8-14.7,32.8-32.8
		c0-9.2-3.8-17.5-9.9-23.5l107.8-117.4c5.8,5,13.2,8,21.4,8c10.4,0,19.7-4.9,25.7-12.5l96.4,71.5c-3.7,5.3-5.9,11.8-5.9,18.7
		c0,18.1,14.7,32.8,32.8,32.8s32.8-14.7,32.8-32.8c0-10-4.5-19-11.7-25.1l129-162.8c5.5,4.1,12.2,6.5,19.6,6.5
		c18.1,0,32.8-14.7,32.8-32.8S537,188.1,518.9,188.1z M48.1,521c-17,0-30.8-13.8-30.8-30.8s13.8-30.8,30.8-30.8
		c7.7,0,14.7,2.8,20.1,7.5c0.5,0.4,1,0.9,1.5,1.4c5.7,5.6,9.3,13.4,9.3,22C78.9,507.2,65,521,48.1,521z M200.2,355.4
		c-7.7,0-14.7-2.8-20.1-7.5c-0.5-0.4-1-0.9-1.5-1.4c-5.7-5.6-9.3-13.4-9.3-22c0-17,13.8-30.8,30.8-30.8c17,0,30.8,13.8,30.8,30.8
		c0,6.5-2,12.5-5.5,17.5c-0.4,0.5-0.8,1.1-1.2,1.6C218.7,350.8,210,355.4,200.2,355.4z M349.3,465.9c-17,0-30.8-13.8-30.8-30.8
		c0-6.5,2-12.5,5.5-17.5c0.4-0.5,0.8-1.1,1.2-1.6c5.6-7.1,14.4-11.7,24.1-11.7c6.9,0,13.2,2.3,18.3,6.1c0.5,0.4,1.1,0.8,1.6,1.2
		c6.7,5.7,10.9,14.1,10.9,23.5C380.1,452,366.3,465.9,349.3,465.9z M518.9,251.7c-6.9,0-13.2-2.3-18.3-6.1c-0.5-0.4-1.1-0.8-1.6-1.2
		c-6.7-5.7-10.9-14.1-10.9-23.5c0-17,13.8-30.8,30.8-30.8s30.8,13.8,30.8,30.8S535.9,251.7,518.9,251.7z"/>
</g>
<g id="specctr">
	<g id="Dimensions">
	</g>
</g>
</svg>
