<?xml version="1.0" encoding="utf-8"?>
<!-- Generator: Adobe Illustrator 17.1.0, SVG Export Plug-In . SVG Version: 6.00 Build 0)  -->
<!DOCTYPE svg PUBLIC "-//W3C//DTD SVG 1.1//EN" "http://www.w3.org/Graphics/SVG/1.1/DTD/svg11.dtd">
<svg version="1.1" xmlns="http://www.w3.org/2000/svg" xmlns:xlink="http://www.w3.org/1999/xlink" x="0px" y="0px"
	 viewBox="0 0 566 700" enable-background="new 0 0 566 700" xml:space="preserve">

<g id="Layer_1">
	<polygon fill="#E4E4E4" points="80,575 80,233 78,233 78,575 78,577 80,577 497,577 497,575 	"/>
	<g>
		<path fill="#E4E4E4" d="M374.7,480.1c-29.7,0-53.9-24.2-53.9-53.9c0-29.7,24.2-53.9,53.9-53.9s53.9,24.2,53.9,53.9
			C428.6,455.9,404.4,480.1,374.7,480.1z M374.7,374.3c-28.6,0-51.9,23.3-51.9,51.9s23.3,51.9,51.9,51.9s51.9-23.3,51.9-51.9
			S403.3,374.3,374.7,374.3z"/>
	</g>
	<g>
		<path fill="#E4E4E4" d="M264.2,395.2c-22,0-40-17.9-40-40c0-22,17.9-40,40-40s40,17.9,40,40C304.2,377.3,286.2,395.2,264.2,395.2z
			 M264.2,317.3c-20.9,0-38,17-38,38c0,20.9,17,38,38,38s38-17,38-38C302.2,334.3,285.1,317.3,264.2,317.3z"/>
	</g>
	<g>
		<path fill="#E4E4E4" d="M413.7,351.2c-38.8,0-70.3-31.6-70.3-70.3c0-38.8,31.6-70.3,70.3-70.3s70.3,31.5,70.3,70.3
			C484,319.6,452.4,351.2,413.7,351.2z M413.7,212.5c-37.7,0-68.3,30.7-68.3,68.3c0,37.7,30.7,68.3,68.3,68.3
			c37.7,0,68.3-30.7,68.3-68.3C482,243.2,451.3,212.5,413.7,212.5z"/>
	</g>
	<g>
		<path fill="#E4E4E4" d="M228.9,489C228.9,489,228.9,489,228.9,489c-15.8,0-29.7-10.1-34.5-25.2c-3-9.2-2.2-19,2.3-27.7
			c4.4-8.6,11.9-15,21.2-18c3.6-1.2,7.4-1.8,11.1-1.8c15.8,0,29.7,10.1,34.5,25.2c3,9.2,2.2,19.1-2.3,27.7c-4.4,8.6-11.9,15-21.2,18
			C236.4,488.4,232.6,489,228.9,489z M228.9,418.4c-3.6,0-7.1,0.6-10.5,1.7c-8.7,2.8-15.8,8.8-20,17c-4.2,8.1-4.9,17.4-2.1,26.1
			c4.6,14.2,17.7,23.8,32.6,23.8c3.6,0,7.1-0.6,10.5-1.7c8.7-2.8,15.8-8.8,20-17c4.2-8.1,4.9-17.4,2.1-26.2
			C256.9,428,243.8,418.4,228.9,418.4z"/>
	</g>
	<g>
		<path fill="#E4E4E4" d="M147.5,548C147.5,548,147.5,548,147.5,548c-9.4,0-17.6-6-20.4-14.9c-3.6-11.3,2.6-23.4,13.9-27
			c2.1-0.7,4.4-1,6.6-1c9.3,0,17.6,6,20.4,14.9c3.6,11.3-2.6,23.3-13.9,27C152,547.7,149.7,548,147.5,548z M147.5,507.1
			c-2,0-4,0.3-6,0.9c-10.2,3.3-15.9,14.2-12.6,24.4c2.6,8.1,10,13.5,18.5,13.5c0,0,0,0,0,0c2,0,4-0.3,6-0.9
			c10.2-3.3,15.8-14.3,12.6-24.5C163.4,512.5,156,507.1,147.5,507.1z"/>
	</g>
</g>
<g id="specctr">
	<g id="Dimensions">
	</g>
</g>
</svg>
