<svg xmlns="http://www.w3.org/2000/svg" viewBox="0 0 282.4 211.62"><defs><style>.cls-1{fill:#212322;}</style></defs><g id="Layer_2" data-name="Layer 2"><g id="Layer_1-2" data-name="Layer 1"><path class="cls-1" d="M147.22,35.54h-.09V63.17h.09a21.68,21.68,0,0,1,0,43.36h-.09v27.62h.09a49.3,49.3,0,0,0,0-98.6Z"/><path class="cls-1" d="M135.18,98.6h.09V71h-.09a21.68,21.68,0,0,1,0-43.36h.09V0h-.09a49.3,49.3,0,0,0,0,98.6Z"/><path class="cls-1" d="M43.47,168.44H54.36v42.88H43.47Zm10.89-11a5.45,5.45,0,1,0-5.45,5.44A5.45,5.45,0,0,0,54.36,157.45Z"/><path class="cls-1" d="M124.53,168.16c12.34,0,20.74,9.26,20.74,22.8v2.4H114.5c.69,5.23,4.89,9.6,11.92,9.6,3.85,0,8.4-1.54,11-4.11l4.8,7c-4.11,3.77-10.63,5.74-17.05,5.74-12.61,0-22.12-8.49-22.12-21.77C103.1,177.85,111.93,168.16,124.53,168.16ZM114.33,186h20.4c-.26-3.94-3-9.17-10.2-9.17C117.76,176.82,114.84,181.88,114.33,186Z"/><path class="cls-1" d="M180.53,185.56c0-5.74-3-7.71-7.63-7.71a11.8,11.8,0,0,0-9.43,4.88v28.66H152.58v-43h10.89v6.18A19,19,0,0,1,178,168.16c9.08,0,13.45,5.14,13.45,13.2v30H180.53Z"/><path class="cls-1" d="M261.66,168.16c12.34,0,20.74,9.26,20.74,22.8v2.4H251.63c.68,5.23,4.88,9.6,11.91,9.6a16.94,16.94,0,0,0,11.06-4.11l4.8,7c-4.11,3.77-10.63,5.74-17.06,5.74-12.6,0-22.11-8.49-22.11-21.77C240.23,177.85,249.06,168.16,261.66,168.16ZM251.46,186h20.4c-.26-3.94-3-9.17-10.2-9.17C254.88,176.82,252,181.88,251.46,186Z"/><path class="cls-1" d="M4.47,199.28c2.12,1.13,8.17,3.72,13.31,3.72,4.16,0,6.45-1.14,6.45-3.72,0-2.91-2.73-4.18-7.45-5.13C9.67,192.78,0,190.34,0,180.48c0-6.94,4.69-12.15,17.79-12.15a31.47,31.47,0,0,1,16.49,4.73l-4.39,7.39a21.32,21.32,0,0,0-12.08-3.86c-4.18,0-6.5,1.46-6.49,3.86,0,2.66,2.38,3.59,6.45,4.19,7.16,1.07,17.77,4.37,17.77,14.66,0,7.54-6.28,12.11-17.77,12.11-7.2,0-14.29-2.17-17.78-4.5Z"/><path class="cls-1" d="M66,199.28c2.12,1.13,8.17,3.72,13.31,3.72,4.16,0,6.45-1.14,6.45-3.72,0-2.91-2.74-4.18-7.45-5.12-7.11-1.38-16.77-3.82-16.77-13.68,0-6.94,4.69-12.15,17.79-12.15a31.47,31.47,0,0,1,16.49,4.73l-4.4,7.39a21.25,21.25,0,0,0-12.07-3.86c-4.18,0-6.5,1.46-6.49,3.86,0,2.66,2.38,3.59,6.44,4.19,7.17,1.07,17.78,4.37,17.78,14.66,0,7.54-6.28,12.11-17.77,12.11-7.2,0-14.29-2.17-17.78-4.5Z"/><path class="cls-1" d="M203.16,199.28c2.12,1.13,8.17,3.72,13.31,3.72,4.15,0,6.45-1.14,6.45-3.72,0-2.91-2.74-4.18-7.45-5.12-7.12-1.38-16.77-3.82-16.77-13.68,0-6.94,4.69-12.15,17.79-12.15A31.41,31.41,0,0,1,233,173.07l-4.4,7.38a21.31,21.31,0,0,0-12.07-3.85c-4.18,0-6.5,1.45-6.49,3.85,0,2.66,2.38,3.59,6.44,4.19,7.17,1.07,17.78,4.38,17.78,14.66,0,7.54-6.28,12.11-17.77,12.11-7.2,0-14.29-2.17-17.78-4.5Z"/></g></g></svg>