<?xml version="1.0" encoding="utf-8"?>
<!-- Generator: Adobe Illustrator 17.1.0, SVG Export Plug-In . SVG Version: 6.00 Build 0)  -->
<!DOCTYPE svg PUBLIC "-//W3C//DTD SVG 1.1//EN" "http://www.w3.org/Graphics/SVG/1.1/DTD/svg11.dtd">
<svg version="1.1" xmlns="http://www.w3.org/2000/svg" xmlns:xlink="http://www.w3.org/1999/xlink" x="0px" y="0px"
	 viewBox="0 0 566 700" enable-background="new 0 0 566 700" xml:space="preserve">

<g id="Layer_1">
	<path fill="#E4E4E4" d="M419,192.5h-2h-88h-2h-88h-2h-92v80H55v246h276v-80h180v-246H419z M507,196.5v78h-88v-78H507z M327,434.5
		h-88v-78h88V434.5z M149,434.5v-78h88v78H149z M237,436.5v78h-88v-78H237z M147,434.5H59v-78h88V434.5z M149,354.5v-78h88v78H149z
		 M239,354.5v-78h88v78H239z M329,276.5h88v78h-88V276.5z M419,276.5h88v78h-88V276.5z M417,196.5v78h-88v-78H417z M327,196.5v78
		h-88v-78H327z M149,196.5h88v78h-88v-2V196.5z M145,276.5h2v78H59v-78H145z M59,436.5h88v78H59V436.5z M327,438.5v76h-88v-78h88
		V438.5z M329,434.5v-78h88v78h-86H329z M419,434.5v-78h88v78H419z"/>
</g>
<g id="specctr">
	<g id="Dimensions">
	</g>
</g>
</svg>
