<?xml version="1.0" encoding="utf-8"?>
<!-- Generator: Adobe Illustrator 17.1.0, SVG Export Plug-In . SVG Version: 6.00 Build 0)  -->
<!DOCTYPE svg PUBLIC "-//W3C//DTD SVG 1.1//EN" "http://www.w3.org/Graphics/SVG/1.1/DTD/svg11.dtd">
<svg version="1.1" xmlns="http://www.w3.org/2000/svg" xmlns:xlink="http://www.w3.org/1999/xlink" x="0px" y="0px"
	 viewBox="0 0 566 700" enable-background="new 0 0 566 700" xml:space="preserve">

<g id="Layer_1">
</g>
<g id="specctr">
	<g id="Dimensions">
		<g>
			<path fill="#E4E4E4" d="M148.3,490.8l-1-1.3c-25.5-31.2-39.6-70.6-39.6-111c0-40.4,14.1-79.8,39.6-111l1-1.3l26.9,26.9l-0.8,1
				c-38.6,49.6-38.6,118.9,0,168.6l0.8,1L148.3,490.8z M148.5,270.8c-24.4,30.4-37.9,68.6-37.9,107.8c0,39.1,13.4,77.4,37.9,107.8
				l22.7-22.7c-38.4-50.3-38.4-119.9,0-170.2L148.5,270.8z"/>
		</g>
		<g>
			<path fill="#E4E4E4" d="M368.3,270.8l-1-0.8c-23.9-18.6-53.9-28.9-84.3-28.9c-30.4,0-60.3,10.2-84.3,28.9l-1,0.8l-26.9-26.9
				l1.3-1c31.2-25.5,70.6-39.6,111-39.6c40.4,0,79.8,14.1,111,39.6l1.3,1L368.3,270.8z M283,238.1c30.6,0,60.8,10.2,85.1,28.7
				l22.7-22.7c-30.4-24.4-68.6-37.9-107.8-37.9c-39.2,0-77.4,13.4-107.8,37.9l22.7,22.7C222.2,248.3,252.4,238.1,283,238.1z"/>
		</g>
		<g>
			<path fill="#E4E4E4" d="M417.7,490.8l-26.9-26.9l0.8-1c38.6-49.6,38.6-118.9,0-168.6l-0.8-1l26.9-26.9l1,1.3
				c25.5,31.2,39.6,70.6,39.6,111c0,40.4-14.1,79.8-39.6,111L417.7,490.8z M394.8,463.7l22.7,22.7c24.4-30.4,37.9-68.6,37.9-107.8
				c0-39.1-13.4-77.3-37.9-107.8l-22.7,22.7C433.1,343.8,433.1,413.4,394.8,463.7z"/>
		</g>
		<g>
			<path fill="#E4E4E4" d="M283,553.9L283,553.9c-40.4,0-79.8-14.1-111-39.6l-1.3-1l26.9-26.9l1,0.8c23.9,18.6,53.9,28.9,84.3,28.9
				c30.4,0,60.4-10.2,84.3-28.9l1-0.8l26.9,26.9l-1.3,1C362.8,539.9,323.4,553.9,283,553.9z M175.2,513.1
				c30.4,24.4,68.6,37.9,107.7,37.9h0.1c39.1,0,77.3-13.4,107.8-37.9l-22.7-22.7c-24.3,18.5-54.4,28.7-85.1,28.7
				c-30.6,0-60.8-10.2-85.1-28.7L175.2,513.1z"/>
		</g>
		<g>
			<path fill="#E4E4E4" d="M283,458c-43.8,0-79.4-35.6-79.4-79.4c0-43.8,35.6-79.4,79.4-79.4c43.8,0,79.4,35.6,79.4,79.4
				C362.4,422.4,326.8,458,283,458z M283,302.2c-42.1,0-76.4,34.3-76.4,76.4c0,42.1,34.3,76.4,76.4,76.4c42.1,0,76.4-34.3,76.4-76.4
				C359.4,336.5,325.1,302.2,283,302.2z"/>
		</g>
		<g>
			<path fill="#E4E4E4" d="M283,493c-63.1,0-114.4-51.3-114.4-114.4S219.9,264.2,283,264.2c63.1,0,114.4,51.3,114.4,114.4
				S346.1,493,283,493z M283,267.2c-61.4,0-111.4,50-111.4,111.4S221.6,490,283,490c61.4,0,111.4-50,111.4-111.4
				S344.4,267.2,283,267.2z"/>
		</g>
	</g>
</g>
</svg>
