<?xml version="1.0" encoding="utf-8"?>
<!-- Generator: Adobe Illustrator 17.1.0, SVG Export Plug-In . SVG Version: 6.00 Build 0)  -->
<!DOCTYPE svg PUBLIC "-//W3C//DTD SVG 1.1//EN" "http://www.w3.org/Graphics/SVG/1.1/DTD/svg11.dtd">
<svg version="1.1" xmlns="http://www.w3.org/2000/svg" xmlns:xlink="http://www.w3.org/1999/xlink" x="0px" y="0px"
	 viewBox="0 0 566 700" enable-background="new 0 0 566 700" xml:space="preserve">

<g id="Layer_1">
	<path fill="#E4E4E4" d="M404.5,206.5h-2h-109h-2h-108h-4h-127v35v4v31v2v31v2v30v2v31v2v30v2v31v2v31v2v34h127h4h108h2h109h2h110
		v-34v-2v-31v-2v-31v-2v-30v-2v-31v-2v-30v-2v-31v-2v-31v-4v-35H404.5z M402.5,210.5v31h-109v-31H402.5z M291.5,278.5v31h-108v-31
		H291.5z M183.5,276.5v-31h108v31H183.5z M291.5,311.5v30h-108v-30H291.5z M291.5,343.5v31h-108v-31H291.5z M291.5,376.5v30h-108
		v-30H291.5z M291.5,408.5v31h-108v-31H291.5z M291.5,441.5v31h-108v-31H291.5z M293.5,441.5h109v31h-109V441.5z M293.5,439.5v-31
		h109v31H293.5z M293.5,406.5v-30h109v30H293.5z M293.5,374.5v-31h109v31H293.5z M293.5,341.5v-30h109v30H293.5z M293.5,309.5v-31
		h109v31H293.5z M293.5,276.5v-31h109v31H293.5z M291.5,210.5v31h-108v-31H291.5z M56.5,210.5h123v31h-123V210.5z M56.5,245.5h123
		v31h-123V245.5z M56.5,278.5h123v31h-123V278.5z M56.5,311.5h123v30h-123V311.5z M56.5,343.5h123v31h-123V343.5z M56.5,376.5h123
		v30h-123V376.5z M56.5,408.5h123v31h-123V408.5z M56.5,441.5h123v31h-123V441.5z M56.5,504.5v-30h123v30H56.5z M183.5,504.5v-30
		h108v30H183.5z M293.5,504.5v-30h109v30H293.5z M510.5,504.5h-106v-30h106V504.5z M510.5,472.5h-106v-31h106V472.5z M510.5,439.5
		h-106v-31h106V439.5z M510.5,406.5h-106v-30h106V406.5z M510.5,374.5h-106v-31h106V374.5z M510.5,341.5h-106v-30h106V341.5z
		 M510.5,309.5h-106v-31h106V309.5z M510.5,276.5h-106v-31h106V276.5z M404.5,241.5v-31h106v31H404.5z"/>
</g>
<g id="specctr">
	<g id="Dimensions">
	</g>
</g>
</svg>
