<?xml version="1.0" encoding="utf-8"?>
<!-- Generator: Adobe Illustrator 17.1.0, SVG Export Plug-In . SVG Version: 6.00 Build 0)  -->
<!DOCTYPE svg PUBLIC "-//W3C//DTD SVG 1.1//EN" "http://www.w3.org/Graphics/SVG/1.1/DTD/svg11.dtd">
<svg version="1.1" xmlns="http://www.w3.org/2000/svg" xmlns:xlink="http://www.w3.org/1999/xlink" x="0px" y="0px"
	 viewBox="0 0 566 700" enable-background="new 0 0 566 700" xml:space="preserve">

<g id="Layer_1">
	<g>
		<path fill="#E4E4E4" d="M307.6,337.5h-28.6l-3.4,41.7h28.6L307.6,337.5z M278.4,376.7l3-36.7h23.5l-3,36.7H278.4z"/>
		<path fill="#E4E4E4" d="M262.9,415.9h12l2.4-28.6h23.5l-2.4,28.6h12l2.4-28.6h18.6v-10.5h-17.5l3-36.7h17.7v-10.5h-16.8l2.4-28.6
			h-12l-2.4,28.6h-23.5l2.4-28.6h-12l-2.4,28.6h-18.5V340h17.5l-3,36.7h-17.7v10.5h16.8L262.9,415.9z M251.1,384.7v-5.5h17.5
			l3.4-41.7h-17.8V332h18.3l2.4-28.6h7l-2.4,28.6h28.6l2.4-28.6h7l-2.4,28.6h17v5.5h-17.5l-3.4,41.7H329v5.5h-18.4l-2.4,28.6h-7
			l2.4-28.6h-28.6l-2.4,28.6h-7l2.4-28.6H251.1z"/>
		<path fill="#E4E4E4" d="M84,269.1v178.8h396.6V269.1H84z M478.2,445.4H86.5V271.6h391.6V445.4z"/>
	</g>
</g>
<g id="specctr">
	<g id="Dimensions">
	</g>
</g>
</svg>
