<?xml version="1.0" encoding="utf-8"?>
<!-- Generator: Adobe Illustrator 17.1.0, SVG Export Plug-In . SVG Version: 6.00 Build 0)  -->
<!DOCTYPE svg PUBLIC "-//W3C//DTD SVG 1.1//EN" "http://www.w3.org/Graphics/SVG/1.1/DTD/svg11.dtd">
<svg version="1.1" xmlns="http://www.w3.org/2000/svg" xmlns:xlink="http://www.w3.org/1999/xlink" x="0px" y="0px"
	 viewBox="0 0 566 700" enable-background="new 0 0 566 700" xml:space="preserve">

<g id="Layer_1">
	<g>
		<g>
			<path fill="#E4E4E4" d="M480.4,506.2l-162.3-106L509.4,431l-0.2,1c-4.3,26.5-13.8,51.2-28.4,73.4L480.4,506.2z M327,403.7
				l152.7,99.8c13.9-21.5,23.1-45.3,27.3-70.8L327,403.7z"/>
		</g>
		<g>
			<path fill="#E4E4E4" d="M275.3,586.8C170.9,586.8,86,502,86,397.7c0-50.6,19.6-98.1,55.1-133.8c35.6-35.7,83-55.5,133.5-55.5h1
				v188.7l158.3,103.1l-0.5,0.8C398.1,554.8,339.1,586.8,275.3,586.8z M273.5,210.7c-49.6,0.3-96.1,19.7-131.1,54.8
				C107.3,300.7,88,347.7,88,397.7c0,103.2,84,187.1,187.4,187.1c62.7,0,120.9-31.4,155.7-83.9L273.5,398.3V210.7z"/>
		</g>
		<g>
			<path fill="#E4E4E4" d="M482.8,408.7l-1-0.2l-187.3-30V188.5h1c74.8,0,142.7,44.1,173.1,112.2c15.2,34.1,20.2,71.1,14.4,107
				L482.8,408.7z M296.5,376.9l184.6,29.5c5.5-35.2,0.5-71.4-14.4-104.9c-29.9-67.1-96.6-110.5-170.2-110.9V376.9z"/>
		</g>
	</g>
</g>
<g id="specctr">
	<g id="Dimensions">
	</g>
</g>
</svg>
