<?xml version="1.0" encoding="utf-8"?>
<!-- Generator: Adobe Illustrator 18.1.1, SVG Export Plug-In . SVG Version: 6.00 Build 0)  -->
<svg version="1.1" xmlns="http://www.w3.org/2000/svg" xmlns:xlink="http://www.w3.org/1999/xlink" x="0px" y="0px"
	 viewBox="0 0 566.5 700.5" enable-background="new 0 0 566.5 700.5" xml:space="preserve">
<g id="Layer_2">
	<rect x="-5057" y="-6963" fill="#FFFFFF" stroke="#000000" stroke-miterlimit="10" width="16156.4" height="16115.1"/>
</g>
<g id="Layer_1">
	<path fill="#E4E4E4" d="M399,207h-2H284h-2H170h-2H53v35v4v31v2v31v2v30v2v31v2v30v2v31v2v31v2v34h115h2h112h2h113h2h116v-34v-2
		v-31v-2v-31v-2v-30v-2v-31v-2v-30v-2v-31v-2v-31v-4v-35H399z M397,211v31H284v-31H397z M282,279v31H170v-31H282z M170,277v-31h112
		v31H170z M282,312v30H170v-30H282z M282,344v31H170v-31H282z M282,377v30H170v-30H282z M282,409v31H170v-31H282z M282,442v31H170
		v-31H282z M284,442h113v31H284V442z M284,440v-31h113v31H284z M284,407v-30h113v30H284z M284,375v-31h113v31H284z M284,342v-30h113
		v30H284z M284,310v-31h113v31H284z M284,277v-31h113v31H284z M282,211v31H170v-31H282z M57,211h111v31H57V211z M57,246h111v31H57
		V246z M57,279h111v31H57V279z M57,312h111v30H57V312z M57,344h111v31H57V344z M57,377h111v30H57V377z M57,409h111v31H57V409z
		 M57,442h111v31H57V442z M57,505v-30h111v30H57z M170,505v-30h112v30H170z M284,505v-30h113v30H284z M511,505H399v-30h112V505z
		 M511,473H399v-31h112V473z M511,440H399v-31h112V440z M511,407H399v-30h112V407z M511,375H399v-31h112V375z M511,342H399v-30h112
		V342z M511,310H399v-31h112V310z M511,277H399v-31h112V277z M399,242v-31h112v31H399z"/>
</g>
<g id="specctr">
	<g id="Dimensions">
	</g>
</g>
</svg>
